<svg width="42" height="53" fill="none" xmlns="http://www.w3.org/2000/svg"><path fill="#FFDE16" d="M0 21L21 0l21 21-21 21z"/><path d="M14 39.494l7 7 7-7" stroke="#101010" stroke-width="1.3"/><path d="M14 44.494l7 7 7-7" stroke="#101010" stroke-width="1.3"/><g clip-path="url(#clip0)"><path d="M13.832 10.24v17.037L21 34.817l7.169-7.54V10.24H13.83zm11.489 4.056a4.658 4.658 0 00-1.409-2.818h3.137v2.818h-1.728zm1.728 10.52l-4.071-7.497 4.071 3.468v4.03zm-12.098-4.06l4.105-3.468-4.105 7.535v-4.068zm5.514-3.684l-.017 15.5-5.359-5.636 5.376-9.864zm1.12.054l5.326 9.81-5.343 5.62.016-15.43zm-3.775-2.83c.266-1.6 1.595-2.818 3.19-2.818s2.924 1.22 3.19 2.818h-6.38zm-2.86 0v-2.819h3.138a4.658 4.658 0 00-1.409 2.818h-1.728v.001zm1.692 1.178h2.776l-4.467 3.771v-3.772h1.691zM27.05 19.27l-4.46-3.798h4.461v3.798z" fill="#101010"/></g><defs><clipPath id="clip0"><path fill="#fff" transform="translate(13.832 10.24)" d="M0 0h14.337v24.578H0z"/></clipPath></defs></svg>