<svg width="42" height="53" viewBox="0 0 42 53" fill="none" xmlns="http://www.w3.org/2000/svg">
<rect y="21" width="29.6985" height="29.6985" transform="rotate(-45 0 21)" fill="#FFDE16"/>
<path d="M14 39.4941L21 46.4941L28 39.4941" stroke="#101010" stroke-width="1.3"/>
<path d="M14 44.4941L21 51.4941L28 44.4941" stroke="#101010" stroke-width="1.3"/>
<g clip-path="url(#clip0)">
<path d="M13.8315 10.2407V10.2996V15.4725V27.2773L21.0001 34.8178L28.1687 27.2773V15.4735V10.2996V10.2407H13.8315ZM25.3209 14.296C25.1847 13.1833 24.6679 12.1933 23.9124 11.478H27.0494V14.296H25.3209ZM27.0494 24.8164L22.9777 17.3191L27.0494 20.7867V24.8164ZM14.9509 20.7553L19.0562 17.2877L14.9509 24.8233V20.7553ZM20.4647 17.0718L20.4479 32.5728L15.089 26.9358L20.4647 17.0718ZM21.5841 17.1258L26.9113 26.9358L21.5682 32.5561L21.5841 17.1258ZM17.81 14.296C18.0758 12.6967 19.405 11.478 21.0001 11.478C22.5952 11.478 23.9245 12.6976 24.1903 14.296H17.81ZM14.9509 14.296V11.477H18.0879C17.3324 12.1923 16.8156 13.1824 16.6794 14.295H14.9509V14.296ZM16.6421 15.4735H19.4181L14.9509 19.2452V15.4735H16.6421ZM27.0494 19.2707L22.5896 15.4735H25.3591H27.0503V19.2707H27.0494Z" fill="#101010"/>
</g>
<defs>
<clipPath id="clip0">
<rect width="14.3372" height="24.5781" fill="white" transform="translate(13.8315 10.2407)"/>
</clipPath>
</defs>
</svg>
